<svg id="visual" viewBox="0 0 960 540" width="960" height="540" xmlns="http://www.w3.org/2000/svg" xmlns:xlink="http://www.w3.org/1999/xlink" version="1.1"><path d="M0 290L22.8 296.5C45.7 303 91.3 316 137 322.7C182.7 329.3 228.3 329.7 274 324.5C319.7 319.3 365.3 308.7 411.2 302.8C457 297 503 296 548.8 294.3C594.7 292.7 640.3 290.3 686 297C731.7 303.7 777.3 319.3 823 320C868.7 320.7 914.3 306.3 937.2 299.2L960 292L960 541L937.2 541C914.3 541 868.7 541 823 541C777.3 541 731.7 541 686 541C640.3 541 594.7 541 548.8 541C503 541 457 541 411.2 541C365.3 541 319.7 541 274 541C228.3 541 182.7 541 137 541C91.3 541 45.7 541 22.8 541L0 541Z" fill="#ffe66d"></path><path d="M0 361L22.8 363.7C45.7 366.3 91.3 371.7 137 372.5C182.7 373.3 228.3 369.7 274 364.7C319.7 359.7 365.3 353.3 411.2 351.3C457 349.3 503 351.7 548.8 357.3C594.7 363 640.3 372 686 375.8C731.7 379.7 777.3 378.3 823 372.5C868.7 366.7 914.3 356.3 937.2 351.2L960 346L960 541L937.2 541C914.3 541 868.7 541 823 541C777.3 541 731.7 541 686 541C640.3 541 594.7 541 548.8 541C503 541 457 541 411.2 541C365.3 541 319.7 541 274 541C228.3 541 182.7 541 137 541C91.3 541 45.7 541 22.8 541L0 541Z" fill="#78e79e"></path><path d="M0 429L22.8 429.7C45.7 430.3 91.3 431.7 137 433.5C182.7 435.3 228.3 437.7 274 437C319.7 436.3 365.3 432.7 411.2 432.8C457 433 503 437 548.8 435.5C594.7 434 640.3 427 686 425.7C731.7 424.3 777.3 428.7 823 426.3C868.7 424 914.3 415 937.2 410.5L960 406L960 541L937.2 541C914.3 541 868.7 541 823 541C777.3 541 731.7 541 686 541C640.3 541 594.7 541 548.8 541C503 541 457 541 411.2 541C365.3 541 319.7 541 274 541C228.3 541 182.7 541 137 541C91.3 541 45.7 541 22.8 541L0 541Z" fill="#00d2e4"></path><path d="M0 473L22.8 474C45.7 475 91.3 477 137 474.7C182.7 472.3 228.3 465.7 274 462.2C319.7 458.7 365.3 458.3 411.2 463.7C457 469 503 480 548.8 480.2C594.7 480.3 640.3 469.7 686 468.7C731.7 467.7 777.3 476.3 823 477.2C868.7 478 914.3 471 937.2 467.5L960 464L960 541L937.2 541C914.3 541 868.7 541 823 541C777.3 541 731.7 541 686 541C640.3 541 594.7 541 548.8 541C503 541 457 541 411.2 541C365.3 541 319.7 541 274 541C228.3 541 182.7 541 137 541C91.3 541 45.7 541 22.8 541L0 541Z" fill="#4facf7"></path></svg>